<?xml version="1.0" encoding="UTF-8" standalone="no"?>
<!-- The icon can be used freely in both personal and commercial projects with no attribution required, but always appreciated. 
You may NOT sub-license, resell, rent, redistribute or otherwise transfer the icon without express written permission from iconmonstr.com -->

<svg
   xmlns:dc="http://purl.org/dc/elements/1.1/"
   xmlns:cc="http://creativecommons.org/ns#"
   xmlns:rdf="http://www.w3.org/1999/02/22-rdf-syntax-ns#"
   xmlns:svg="http://www.w3.org/2000/svg"
   xmlns="http://www.w3.org/2000/svg"
   xmlns:sodipodi="http://sodipodi.sourceforge.net/DTD/sodipodi-0.dtd"
   xmlns:inkscape="http://www.inkscape.org/namespaces/inkscape"
   version="1.1"
   x="0px"
   y="0px"
   width="409.24908"
   height="411.99997"
   viewBox="0 0 409.24908 411.99997"
   enable-background="new 0 0 512 512"
   xml:space="preserve"
   id="svg2"
   inkscape:version="0.48.3.1 r9886"
   sodipodi:docname="magnifier.svg"><metadata
   id="metadata9"><rdf:RDF><cc:Work
       rdf:about=""><dc:format>image/svg+xml</dc:format><dc:type
         rdf:resource="http://purl.org/dc/dcmitype/StillImage" /></cc:Work></rdf:RDF></metadata><defs
   id="defs7" /><sodipodi:namedview
   pagecolor="#ffffff"
   bordercolor="#666666"
   borderopacity="1"
   objecttolerance="10"
   gridtolerance="10"
   guidetolerance="10"
   inkscape:pageopacity="0"
   inkscape:pageshadow="2"
   inkscape:window-width="715"
   inkscape:window-height="480"
   id="namedview5"
   showgrid="false"
   fit-margin-top="0"
   fit-margin-left="0"
   fit-margin-right="0"
   fit-margin-bottom="0"
   inkscape:zoom="0.4609375"
   inkscape:cx="541.98093"
   inkscape:cy="205.99996"
   inkscape:window-x="7"
   inkscape:window-y="1"
   inkscape:window-maximized="0"
   inkscape:current-layer="svg2" />

<path
   id="magnifier-5-icon"
   d="M 409.113,337.166 292.023,220.076 C 340.676,119.175 267.129,0 153.584,0 68.898,0 0,68.898 0,153.585 0,265.308 115.703,338.96 216.308,293.772 l 118.1,118.097 c 33.59,2.803 77.604,-39.947 74.705,-74.703 z m -255.529,-81.04 c -56.537,0 -102.535,-45.999 -102.535,-102.541 0,-56.539 45.998,-102.538 102.535,-102.538 56.541,0 102.541,45.999 102.541,102.538 0,56.542 -46,102.541 -102.541,102.541 z"
   style="fill:#bebebe;fill-opacity:1"
   inkscape:connector-curvature="0" />

</svg>